<svg width="21" height="12" fill="none" xmlns="http://www.w3.org/2000/svg"><path d="M7.88 11l-2.4-3.375c-.27.03-.55.045-.84.045H1.82V11H.71V.5h3.93c1.34 0 2.39.32 3.15.96.76.64 1.14 1.52 1.14 2.64 0 .82-.21 1.515-.63 2.085-.41.56-1 .965-1.77 1.215L9.095 11H7.88zM4.61 6.725c1.04 0 1.835-.23 2.385-.69.55-.46.825-1.105.825-1.935 0-.85-.275-1.5-.825-1.95-.55-.46-1.345-.69-2.385-.69H1.82v5.265h2.79zm11.17 4.365c-1.36 0-2.42-.39-3.18-1.17-.76-.78-1.14-1.915-1.14-3.405V.5h1.11v5.97c0 1.22.275 2.13.825 2.73.55.6 1.345.9 2.385.9 1.05 0 1.85-.3 2.4-.9.55-.6.825-1.51.825-2.73V.5h1.08v6.015c0 1.49-.38 2.625-1.14 3.405-.75.78-1.805 1.17-3.165 1.17z" fill="#37373F"/></svg>