<svg width="110" height="26" fill="none" xmlns="http://www.w3.org/2000/svg"><path d="M11.69.5V25H4.76V5.855H.21V.5h11.48zm12.855 8.925c3.43 0 5.961.7 7.595 2.1 1.656 1.4 2.485 3.267 2.485 5.6a7.837 7.837 0 01-1.19 4.2c-.77 1.26-1.96 2.275-3.57 3.045-1.587.747-3.559 1.12-5.915 1.12-1.727 0-3.442-.21-5.145-.63-1.68-.42-3.127-1.015-4.34-1.785l2.485-5.215c.98.653 2.053 1.155 3.22 1.505 1.19.35 2.38.525 3.57.525s2.135-.222 2.835-.665c.723-.467 1.085-1.108 1.085-1.925s-.35-1.435-1.05-1.855c-.7-.42-1.937-.63-3.71-.63h-6.65L17.475.5h15.61v5.355h-9.87l-.315 3.57h1.645zM47.449 25.49c-2.1 0-3.966-.502-5.6-1.505-1.633-1.003-2.916-2.462-3.85-4.375-.91-1.937-1.365-4.223-1.365-6.86 0-2.637.455-4.912 1.365-6.825.934-1.937 2.217-3.407 3.85-4.41C43.483.512 45.35.01 47.45.01c2.077 0 3.932.502 5.565 1.505 1.634 1.003 2.905 2.473 3.815 4.41.934 1.913 1.4 4.188 1.4 6.825 0 2.637-.466 4.923-1.4 6.86-.91 1.913-2.181 3.372-3.815 4.375-1.633 1.003-3.488 1.505-5.565 1.505zm0-5.67c1.167 0 2.089-.56 2.765-1.68.7-1.143 1.05-2.94 1.05-5.39 0-2.45-.35-4.235-1.05-5.355-.676-1.143-1.598-1.715-2.765-1.715-1.19 0-2.135.572-2.835 1.715-.676 1.12-1.015 2.905-1.015 5.355 0 2.45.339 4.247 1.015 5.39.7 1.12 1.645 1.68 2.835 1.68zm23.96 5.67c-2.1 0-3.966-.502-5.6-1.505-1.633-1.003-2.916-2.462-3.85-4.375-.91-1.937-1.365-4.223-1.365-6.86 0-2.637.455-4.912 1.365-6.825.934-1.937 2.217-3.407 3.85-4.41C67.443.512 69.31.01 71.41.01c2.077 0 3.932.502 5.565 1.505 1.634 1.003 2.905 2.473 3.815 4.41.934 1.913 1.4 4.188 1.4 6.825 0 2.637-.466 4.923-1.4 6.86-.91 1.913-2.181 3.372-3.815 4.375-1.633 1.003-3.488 1.505-5.565 1.505zm0-5.67c1.167 0 2.089-.56 2.765-1.68.7-1.143 1.05-2.94 1.05-5.39 0-2.45-.35-4.235-1.05-5.355-.676-1.143-1.598-1.715-2.765-1.715-1.19 0-2.135.572-2.835 1.715-.676 1.12-1.015 2.905-1.015 5.355 0 2.45.339 4.247 1.015 5.39.7 1.12 1.645 1.68 2.835 1.68zm23.225-2.73v1.855h7.455v3.395h-7.455V25H87.67v-2.66h-3.255v-3.395h3.255V.5h11.2c3.43 0 6.102.7 8.015 2.1 1.914 1.4 2.87 3.465 2.87 6.195 0 2.73-.956 4.795-2.87 6.195-1.913 1.4-4.585 2.1-8.015 2.1h-4.235zm8.12-8.225c0-.933-.35-1.645-1.05-2.135-.676-.513-1.645-.77-2.905-.77h-4.165v5.845H98.8c1.26 0 2.229-.257 2.905-.77.7-.513 1.05-1.237 1.05-2.17z" fill="#fff"/></svg>