<svg width="64" height="22" fill="none" xmlns="http://www.w3.org/2000/svg"><path d="M5.148 4.4V17h-2.34V6.362H.144V4.4h5.004zm6.441 4.878c1.777 0 3.09.348 3.942 1.044.853.684 1.278 1.62 1.278 2.808 0 .756-.186 1.44-.558 2.052-.372.612-.93 1.098-1.674 1.458-.743.36-1.662.54-2.754.54-.9 0-1.77-.126-2.61-.378-.84-.264-1.548-.624-2.124-1.08l.99-1.818c.468.384 1.026.69 1.674.918.66.216 1.338.324 2.034.324.829 0 1.476-.168 1.944-.504.48-.348.72-.822.72-1.422 0-.648-.258-1.134-.774-1.458-.503-.336-1.373-.504-2.61-.504H8.026L8.673 4.4h7.399v1.962h-5.418l-.27 2.916h1.205zm11.826 7.902c-1.008 0-1.908-.252-2.7-.756-.792-.516-1.416-1.26-1.872-2.232-.456-.984-.684-2.148-.684-3.492 0-1.344.228-2.502.684-3.474.456-.984 1.08-1.728 1.872-2.232.792-.516 1.692-.774 2.7-.774 1.008 0 1.908.258 2.7.774.804.504 1.434 1.248 1.89 2.232.456.972.684 2.13.684 3.474 0 1.344-.228 2.508-.684 3.492-.456.972-1.086 1.716-1.89 2.232-.792.504-1.692.756-2.7.756zm0-2.034c.9 0 1.608-.372 2.124-1.116.528-.744.792-1.854.792-3.33s-.264-2.586-.792-3.33c-.516-.744-1.224-1.116-2.124-1.116-.888 0-1.596.372-2.124 1.116-.516.744-.774 1.854-.774 3.33s.258 2.586.774 3.33c.528.744 1.236 1.116 2.124 1.116zm12.111 2.034c-1.008 0-1.908-.252-2.7-.756-.791-.516-1.416-1.26-1.872-2.232-.456-.984-.684-2.148-.684-3.492 0-1.344.229-2.502.684-3.474.456-.984 1.08-1.728 1.873-2.232.791-.516 1.692-.774 2.7-.774 1.008 0 1.907.258 2.7.774.804.504 1.434 1.248 1.89 2.232.456.972.684 2.13.684 3.474 0 1.344-.229 2.508-.684 3.492-.456.972-1.086 1.716-1.89 2.232-.792.504-1.692.756-2.7.756zm0-2.034c.9 0 1.608-.372 2.124-1.116.529-.744.793-1.854.793-3.33s-.264-2.586-.792-3.33c-.517-.744-1.225-1.116-2.125-1.116-.888 0-1.596.372-2.123 1.116-.517.744-.774 1.854-.774 3.33s.258 2.586.774 3.33c.528.744 1.236 1.116 2.123 1.116zm10.744-2.304v1.026h3.96v1.26h-3.96V17h-2.34v-1.872h-1.8v-1.26h1.8V4.4h5.184c1.68 0 2.988.36 3.924 1.08.948.72 1.422 1.77 1.422 3.15 0 1.368-.474 2.412-1.422 3.132-.936.72-2.244 1.08-3.924 1.08H46.27zm5.832-4.194c0-.732-.258-1.29-.774-1.674-.516-.396-1.26-.594-2.232-.594H46.27v4.572h2.826c.96 0 1.698-.198 2.214-.594.528-.408.792-.978.792-1.71z" fill="#37373F"/></svg>