<svg width="64" height="22" viewBox="0 0 64 22" fill="none" xmlns="http://www.w3.org/2000/svg">
<path d="M5.148 4.4V17H2.808V6.362H0.144V4.4H5.148ZM11.5895 9.278C13.3655 9.278 14.6795 9.626 15.5315 10.322C16.3835 11.006 16.8095 11.942 16.8095 13.13C16.8095 13.886 16.6235 14.57 16.2515 15.182C15.8795 15.794 15.3215 16.28 14.5775 16.64C13.8335 17 12.9155 17.18 11.8235 17.18C10.9235 17.18 10.0535 17.054 9.21347 16.802C8.37347 16.538 7.66547 16.178 7.08947 15.722L8.07947 13.904C8.54747 14.288 9.10547 14.594 9.75347 14.822C10.4135 15.038 11.0915 15.146 11.7875 15.146C12.6155 15.146 13.2635 14.978 13.7315 14.642C14.2115 14.294 14.4515 13.82 14.4515 13.22C14.4515 12.572 14.1935 12.086 13.6775 11.762C13.1735 11.426 12.3035 11.258 11.0675 11.258H8.02547L8.67347 4.4H16.0715V6.362H10.6535L10.3835 9.278H11.5895ZM23.4152 17.18C22.4072 17.18 21.5072 16.928 20.7152 16.424C19.9232 15.908 19.2992 15.164 18.8432 14.192C18.3872 13.208 18.1592 12.044 18.1592 10.7C18.1592 9.356 18.3872 8.198 18.8432 7.226C19.2992 6.242 19.9232 5.498 20.7152 4.994C21.5072 4.478 22.4072 4.22 23.4152 4.22C24.4232 4.22 25.3232 4.478 26.1152 4.994C26.9192 5.498 27.5492 6.242 28.0052 7.226C28.4612 8.198 28.6892 9.356 28.6892 10.7C28.6892 12.044 28.4612 13.208 28.0052 14.192C27.5492 15.164 26.9192 15.908 26.1152 16.424C25.3232 16.928 24.4232 17.18 23.4152 17.18ZM23.4152 15.146C24.3152 15.146 25.0232 14.774 25.5392 14.03C26.0672 13.286 26.3312 12.176 26.3312 10.7C26.3312 9.224 26.0672 8.114 25.5392 7.37C25.0232 6.626 24.3152 6.254 23.4152 6.254C22.5272 6.254 21.8192 6.626 21.2912 7.37C20.7752 8.114 20.5172 9.224 20.5172 10.7C20.5172 12.176 20.7752 13.286 21.2912 14.03C21.8192 14.774 22.5272 15.146 23.4152 15.146ZM35.5265 17.18C34.5185 17.18 33.6185 16.928 32.8265 16.424C32.0345 15.908 31.4105 15.164 30.9545 14.192C30.4985 13.208 30.2705 12.044 30.2705 10.7C30.2705 9.356 30.4985 8.198 30.9545 7.226C31.4105 6.242 32.0345 5.498 32.8265 4.994C33.6185 4.478 34.5185 4.22 35.5265 4.22C36.5345 4.22 37.4345 4.478 38.2265 4.994C39.0305 5.498 39.6605 6.242 40.1165 7.226C40.5725 8.198 40.8005 9.356 40.8005 10.7C40.8005 12.044 40.5725 13.208 40.1165 14.192C39.6605 15.164 39.0305 15.908 38.2265 16.424C37.4345 16.928 36.5345 17.18 35.5265 17.18ZM35.5265 15.146C36.4265 15.146 37.1345 14.774 37.6505 14.03C38.1785 13.286 38.4425 12.176 38.4425 10.7C38.4425 9.224 38.1785 8.114 37.6505 7.37C37.1345 6.626 36.4265 6.254 35.5265 6.254C34.6385 6.254 33.9305 6.626 33.4025 7.37C32.8865 8.114 32.6285 9.224 32.6285 10.7C32.6285 12.176 32.8865 13.286 33.4025 14.03C33.9305 14.774 34.6385 15.146 35.5265 15.146ZM46.2698 12.842V13.868H50.2298V15.128H46.2698V17H43.9298V15.128H42.1298V13.868H43.9298V4.4H49.1138C50.7938 4.4 52.1018 4.76 53.0378 5.48C53.9858 6.2 54.4598 7.25 54.4598 8.63C54.4598 9.998 53.9858 11.042 53.0378 11.762C52.1018 12.482 50.7938 12.842 49.1138 12.842H46.2698ZM52.1018 8.648C52.1018 7.916 51.8438 7.358 51.3278 6.974C50.8118 6.578 50.0678 6.38 49.0958 6.38H46.2698V10.952H49.0958C50.0558 10.952 50.7938 10.754 51.3098 10.358C51.8378 9.95 52.1018 9.38 52.1018 8.648Z" fill="#37373F"/>
</svg>
